<svg height="512pt" viewBox="-1 0 512 512.00896" width="512pt" xmlns="http://www.w3.org/2000/svg"><path d="m316.207031 328.875 12.667969-12.667969 71.679688 71.675781-12.671876 12.671876zm0 0" fill="#e7eced"/><path d="m385.261719 192.628906c0 106.386719-86.242188 192.628906-192.628907 192.628906-106.386718 0-192.62890575-86.242187-192.62890575-192.628906 0-106.386718 86.24218775-192.628906 192.62890575-192.628906 106.386719 0 192.628907 86.242188 192.628907 192.628906zm0 0" fill="#7383bf"/><path d="m501.039062 456.234375-88.699218-88.6875c-12.757813-12.757813-33.445313-12.757813-46.207032 0-12.757812 12.757813-12.757812 33.445313 0 46.203125l88.699219 88.691406c12.761719 12.757813 33.449219 12.757813 46.207031 0 12.757813-12.769531 12.757813-33.445312 0-46.207031zm0 0" fill="#be6e41"/><path d="m235.273438 51.105469c-2.292969 3.566406-6.023438 6.289062-11.28125 6.753906-27.808594 2.484375-47.664063 2.769531-71.882813 17.632813-12.890625 7.910156-27.128906 9.785156-40.882813 15.402343-45.019531 18.367188-43.710937 65.109375-53.871093 105.605469-1.6875 6.710938-6.570313 9.863281-11.835938 10.292969 7.132813 75 70.25 133.667969 147.113281 133.667969 81.648438 0 147.832032-66.183594 147.832032-147.832032 0-66.808594-44.347656-123.21875-105.191406-141.523437zm0 0" fill="#c6e2f7"/><path d="m44.800781 192.628906c0 8.683594.898438 17.148438 2.339844 25.417969 14.820313 3.851563 30.585937 5.941406 46.9375 5.941406 86.59375 0 156.792969-58.164062 156.792969-129.914062 0-14.058594-2.777344-27.566407-7.757813-40.246094-15.777343-5.742187-32.722656-9.03125-50.480469-9.03125-81.648437 0-147.832031 66.183594-147.832031 147.832031zm0 0" fill="#a5c4d6"/></svg>